PathFileType	4	(X/Y/Z)	Apose_0-50.trc
DataRate	CameraRate	NumFrames	NumMarkers	Units	OrigDataRate	OrigDataStartFrame	OrigNumFrames
30	30	7	22	m	30	30	50
Frame#	Time	Hip			RHip			RKnee			RAnkle			RBigToe			RSmallToe			RHeel			LHip			LKnee			LAnkle			LBigToe			LSmallToe			LHeel			Neck			Head			Nose			RShoulder			RElbow			RWrist			LShoulder			LElbow			LWrist		
		X1	Y1	Z1	X2	Y2	Z2	X3	Y3	Z3	X4	Y4	Z4	X5	Y5	Z5	X6	Y6	Z6	X7	Y7	Z7	X8	Y8	Z8	X9	Y9	Z9	X10	Y10	Z10	X11	Y11	Z11	X12	Y12	Z12	X13	Y13	Z13	X14	Y14	Z14	X15	Y15	Z15	X16	Y16	Z16	X17	Y17	Z17	X18	Y18	Z18	X19	Y19	Z19	X20	Y20	Z20	X21	Y21	Z21	X22	Y22	Z22
31	1.0333333333333334	0.03520859372955982	0.9213397168584189	0.3544942599192947	0.026622074961270933	0.8808471927040471	0.46132717780512517	0.00395258928966913	0.5077548517088082	0.49495138190054416	-0.006705482752032223	0.11464471751957434	0.5151079601375032	0.1969292755254346	0.032977890582954895	0.5629423455703273	0.14723147393290587	0.030626137868706813	0.6288325052574102	-0.038926862821296676	0.0396971937708638	0.49795175285387916	0.028305064498880993	0.8805792512651561	0.24292629491779805	0.01190248229155567	0.5074228649595213	0.22416606642469078	0.00367870107419726	0.12241800159345069	0.20850468190824095	0.22092103910034697	0.04769628178692565	0.18714374740725048	0.16749916353946284	0.03369080442194841	0.12522947689629443	-0.04757528910886768	0.04833077465275711	0.2067476882342468	0.04677464558239193	1.5727461716723778	0.34651958583152564	0.2535169680275313	1.7633971674958977	0.3224379859750287	0.2602752986464195	1.5956688380511859	0.32881503236026044	0.01974490193272952	1.4914374602874492	0.5303979329490189	0.06733721712004964	1.23531480329931	0.7145936566306608	0.11852613551041258	1.0453131893290815	0.8861411774570429	0.01470217249977545	1.481506674994074	0.14484378711881196	0.02912562165133621	1.2256798972879543	0.0003922849792009606	0.07953190007896416	1.0190797285015814	-0.149088683898041
32	1.0666666666666669	0.035760493799028195	0.9210024109533957	0.3542553846591189	0.02733925175912834	0.8806694567675439	0.46107197367333874	0.004209350919479348	0.5080432759546666	0.4950651404617463	-0.0068324424293840615	0.11454520763538174	0.515022440111359	0.1973964510429865	0.032740223624556156	0.5633276555948976	0.14682988735422575	0.030547431599120118	0.6289646114888585	-0.03770604386381469	0.038561659442729566	0.49696748793908685	0.028560898211675626	0.8803597133222838	0.24260755626625438	0.012247941302677366	0.5071857545196536	0.22397446530223042	0.003679897968717364	0.12245566094887181	0.20877487343989234	0.2208964953947215	0.04800234221643455	0.18667058395202415	0.16725669156196288	0.03368489055752196	0.12529724214752191	-0.047341125445299954	0.04954513171573867	0.20663207210293127	0.04695764930016403	1.5729257920962736	0.34665831023331023	0.25214870129951283	1.7638571193668866	0.32360637662404246	0.2438554352314882	1.589424257690171	0.32767618557585365	0.020091770724480183	1.4916912060732075	0.5302521663296659	0.06472063102996807	1.234399648683414	0.713934552651282	0.11953243428404058	1.0449618125952425	0.8863516629200217	0.014915442641256032	1.481628753433811	0.1449050675217082	0.02923680232632225	1.225561642141879	0.0003891910325930167	0.07878923059598418	1.0195580614063398	-0.14904729168513672
33	1.1	0.036432148226419034	0.9206430238479439	0.3541656930147259	0.02819207337853902	0.8805113094744943	0.46097011774722924	0.004495462275609227	0.5082618492482579	0.4951153772055523	-0.007185432498074693	0.1145439775705499	0.5149987453259426	0.19772380292392847	0.032595162678270256	0.5637632103654193	0.14658275020443878	0.030545741190941313	0.6290432053369972	-0.03717975537454773	0.037951314142520516	0.49661528215017525	0.028946738383893476	0.8801698034464696	0.24244865414110509	0.012677148884954494	0.5069917214960659	0.22380453808803227	0.003637039730211159	0.1224007884586404	0.2090160443126308	0.22071985669405894	0.04807296835720964	0.18632088686941364	0.16692032888999192	0.03379853704750207	0.12527501230696994	-0.04648592217258003	0.05224858120756178	0.20588753439522042	0.0471662820923803	1.5730696075490354	0.3466815162141931	0.2539577515691774	1.7649873473824327	0.32139189618247616	0.23230408907462116	1.5855373730996984	0.32709166004870743	0.02044545609172715	1.4918523059901088	0.5300634422585104	0.06264547073812292	1.2336075678831613	0.71339296341084	0.12046748304578839	1.0447160226690184	0.886527608104322	0.015040597985258149	1.481700643686176	0.14494254867031886	0.029176357860543074	1.2254406863251848	0.0005469399393329461	0.07817909896638853	1.0200988389317933	-0.1490090709807274
34	1.1333333333333333	0.03719486757124359	0.920388044318647	0.3542322852168509	0.029072028091723743	0.8803840059026306	0.46102811380800285	0.0047987855978849515	0.5083050948344634	0.49509936312394237	-0.007909114004681483	0.11501016681558114	0.5150830113086527	0.19752427680418094	0.03249322444247485	0.5637937828733444	0.14668363387675812	0.030609340677490108	0.6289704947592883	-0.03740803229203466	0.03789603228261467	0.4969333117682828	0.029530374626021705	0.8800696462254488	0.2424732054687367	0.01315123683842435	0.5069517134717948	0.22362333149840988	0.003708032805785808	0.12196023595633416	0.20922976778487493	0.22053838773475162	0.047897426420575796	0.18615511569153434	0.1665997977645776	0.033969000366595975	0.1251840751406112	-0.04555604691072624	0.05517326639539417	0.2049700584218904	0.047428991343423106	1.573130468414354	0.3465510600600495	0.2586884441740326	1.7670690183692686	0.31574524343865173	0.2276367700095916	1.5850823593226167	0.3272341650750469	0.02076247065959133	1.4918841652093866	0.5298350034997485	0.06175288790437234	1.2330822112872544	0.7131095642404425	0.12132239234716746	1.0445900749062353	0.88663946363698	0.014997546728706108	1.4816540545245172	0.14499523066836267	0.029014520153488495	1.2253806268484808	0.0008046416853319138	0.07787195604004359	1.0204960283038838	-0.14879117062683098
35	1.1666666666666667	0.037985589844155065	0.9203535493635145	0.3544039121968826	0.029922110896641905	0.8803013490683619	0.4611744795355334	0.005115492508749544	0.5081826358999791	0.49506564285510846	-0.008728636444887358	0.11569147546218063	0.5152501426617065	0.19688277408854202	0.03237861569353041	0.5633702481934552	0.14721489461381124	0.030741680434661925	0.6287136312232853	-0.03815038064380748	0.03816255720446845	0.4977184093312965	0.030323948579560108	0.8801088792063093	0.24265703208053815	0.013610886376452316	0.5071023939544055	0.2234272726749709	0.004027359723722177	0.1208920046319358	0.2093951851260872	0.22050500065635098	0.04754874118210792	0.18618154037487156	0.16637769222115373	0.03411829480744759	0.12505248047931813	-0.04498507410137547	0.05717293351642259	0.2042636471606135	0.04787583003192231	1.5731121769326293	0.3462231850139556	0.26349096427486507	1.7701275855008516	0.30908443568350774	0.2300954409566151	1.588428879887409	0.32812902866561977	0.021021589608827537	1.491807259644594	0.529509167863881	0.06268556556022374	1.2329298657588075	0.7131691233482566	0.12212415732100391	1.0445505499985759	0.8866815615742851	0.014778659162427453	1.4814384468918862	0.14510098892390713	0.02887575283590837	1.2253960691504573	0.0010880150161575836	0.07791469187082573	1.0205534223026402	-0.14831170421033688
36	1.2	0.03871938215655799	0.9205680435368847	0.3545927502497734	0.030730628905283806	0.8802772584402424	0.461315512571277	0.00543944588755752	0.5080138852460038	0.4950744032929476	-0.009181960098008294	0.11597738409134803	0.5154014938961543	0.19633331320821706	0.032383870492045566	0.5628495188301419	0.1481001649046473	0.03094529166558143	0.6282946807332244	-0.038964124162370065	0.03836145349453743	0.4986253417179868	0.03126152130907173	0.8803003601338557	0.24290276846305872	0.013994543987754819	0.5074024500759003	0.22321487335085738	0.004509338762608841	0.11935447899207935	0.20944010751634373	0.22070720197865365	0.04713716000396274	0.18636345006282082	0.16632628675231317	0.03420087203603902	0.12493038885467526	-0.04496404384463422	0.05766129748554759	0.2039755025920119	0.04865570401842604	1.5730575872928951	0.3456440962970474	0.26507426851765337	1.7740860722588714	0.3042454383831699	0.23903009683219179	1.5955592456654308	0.32969236047132433	0.021229458186515365	1.4916666271377683	0.5289882024391804	0.06569592338439209	1.2331702944703884	0.7135304384271608	0.12294131187939976	1.0445314319985233	0.8866589404686185	0.014470636329020712	1.4810673808519665	0.14527393813862677	0.02880327038088771	1.2254300270601846	0.0013064615854494145	0.07828875542943153	1.0202980233382704	-0.14766844952719058
37	1.2333333333333334	0.03930490231579606	0.9209662455436459	0.3547217852331461	0.031477380072786415	0.8803162935705013	0.4613902667557071	0.005747004131445461	0.5079265624396868	0.49515563750250385	-0.009020146911408573	0.11551553453539329	0.5154172670437499	0.1964141344737943	0.032756498309481	0.5626209377514757	0.14913455267120215	0.031164614831493014	0.6277924268346559	-0.03948966460985455	0.03825176432526629	0.49938577858936906	0.032211122912120964	0.8806037973674601	0.24307669631419904	0.014243243212320778	0.5077791199102831	0.2229507115556459	0.004934688709659466	0.11782031653657188	0.20933564029647705	0.221108960468682	0.04678183818439365	0.18662769309617994	0.16649031599346237	0.034231628217160116	0.12487964587434468	-0.04554609462257797	0.056524022982443585	0.20422259532724946	0.049838705050865836	1.5730504543827166	0.3448351261823077	0.2624777791188578	1.7789478218541128	0.3019530776580893	0.25269558672446263	1.6058947216773116	0.33161733582353314	0.021437986403521618	1.4914996999873507	0.5282560007080274	0.0701322671490786	1.2336745184343483	0.7139949180314493	0.12387425066479756	1.0444670301646723	0.8865873183990256	0.014231452651124752	1.4806384312789698	0.14549865487662803	0.028741569295984166	1.2254123607311371	0.001386213038210327	0.0788931503958392	1.0199659206510328	-0.14705769370542174
